HIERARCHY
ROOT Hips
{
	OFFSET	0.00	0.00	0.00
	CHANNELS 6 Xposition Yposition Zposition Zrotation Xrotation Yrotation
	JOINT LeftUpLeg
	{
		OFFSET	 0.126116	-0.014019	-0.065224
		CHANNELS 3 Zrotation Xrotation Yrotation
		JOINT LeftLeg
		{
			OFFSET	 0.000000	 0.000000	 0.569914
			CHANNELS 3 Zrotation Xrotation Yrotation
			JOINT LeftFoot
			{
				OFFSET	 0.000000	 0.000000	 0.544423
				CHANNELS 3 Zrotation Xrotation Yrotation
				JOINT LeftToeBase
				{
					OFFSET	 0.000000	 0.000000	 0.207117
					CHANNELS 3 Zrotation Xrotation Yrotation
					End Site
					{
						OFFSET	 0.000000	 0.000000	 0.207117
					}
				}
			}
		}
	}
	JOINT RightUpLeg
	{
		OFFSET	-0.124023	-0.008373	-0.065224
		CHANNELS 3 Zrotation Xrotation Yrotation
		JOINT RightLeg
		{
			OFFSET	 0.000000	 0.000000	 0.570047
			CHANNELS 3 Zrotation Xrotation Yrotation
			JOINT RightFoot
			{
				OFFSET	 0.000000	 0.000000	 0.544354
				CHANNELS 3 Zrotation Xrotation Yrotation
				JOINT RightToeBase
				{
					OFFSET	 0.000000	 0.000000	 0.207540
					CHANNELS 3 Zrotation Xrotation Yrotation
					End Site
					{
						OFFSET	 0.000000	 0.000000	 0.207540
					}
				}
			}
		}
	}
	JOINT Spine
	{
		OFFSET	 0.000184	-0.007763	 0.117403
		CHANNELS 3 Zrotation Xrotation Yrotation
		JOINT Spine1
		{
			OFFSET	 0.000000	 0.000000	 0.137269
			CHANNELS 3 Zrotation Xrotation Yrotation
			JOINT Spine2
			{
				OFFSET	 0.000000	 0.000000	 0.156879
				CHANNELS 3 Zrotation Xrotation Yrotation
				JOINT LeftShoulder
				{
					OFFSET	 0.080501	-0.002496	 0.160144
					CHANNELS 3 Zrotation Xrotation Yrotation
					JOINT LeftArm
					{
						OFFSET	 0.000000	 0.000000	 0.164363
						CHANNELS 3 Zrotation Xrotation Yrotation
						JOINT LeftForeArm
						{
							OFFSET	 0.000000	 0.000000	 0.364576
							CHANNELS 3 Zrotation Xrotation Yrotation
							JOINT LeftHand
							{
								OFFSET	 0.000000	 0.000000	 0.360812
								CHANNELS 3 Zrotation Xrotation Yrotation
								JOINT LeftHandIndex1
								{
									OFFSET	 0.000000	 0.000000	 0.086006
									CHANNELS 3 Zrotation Xrotation Yrotation
									JOINT LeftHandIndex2
									{
										OFFSET	 0.000000	 0.000000	 0.047236
										CHANNELS 3 Zrotation Xrotation Yrotation
										JOINT LeftHandIndex3
										{
											OFFSET	-0.004284	-0.000551	 0.038166
											CHANNELS 3 Zrotation Xrotation Yrotation
											End Site
											{
												OFFSET	-0.004284	-0.000551	 0.038166
											}
										}
									}
								}
							}
						}
					}
				}
				JOINT Neck
				{
					OFFSET	 0.000000	 0.000000	 0.176489
					CHANNELS 3 Zrotation Xrotation Yrotation
					JOINT Head
					{
						OFFSET	 0.000000	-0.001747	 0.077940
						CHANNELS 3 Zrotation Xrotation Yrotation
						End Site
						{
							OFFSET	 0.000000	-0.001747	 0.077940
						}
					}
				}
				JOINT RightShoulder
				{
					OFFSET	-0.080363	 0.000306	 0.159706
					CHANNELS 3 Zrotation Xrotation Yrotation
					JOINT RightArm
					{
						OFFSET	 0.000000	 0.000000	 0.164196
						CHANNELS 3 Zrotation Xrotation Yrotation
						JOINT RightForeArm
						{
							OFFSET	 0.000000	 0.000000	 0.365611
							CHANNELS 3 Zrotation Xrotation Yrotation
							JOINT RightHand
							{
								OFFSET	 0.000000	 0.000000	 0.360648
								CHANNELS 3 Zrotation Xrotation Yrotation
								JOINT RightHandIndex1
								{
									OFFSET	 0.000000	 0.000000	 0.069977
									CHANNELS 3 Zrotation Xrotation Yrotation
									JOINT RightHandIndex2
									{
										OFFSET	 0.000000	 0.000000	 0.052305
										CHANNELS 3 Zrotation Xrotation Yrotation
										JOINT RightHandIndex3
										{
											OFFSET	 0.009002	-0.000782	 0.042196
											CHANNELS 3 Zrotation Xrotation Yrotation
											End Site
											{
												OFFSET	 0.009002	-0.000782	 0.042196
											}
										}
									}
								}
							}
						}
					}
				}
			}
		}
	}
}
MOTION
Frames:    4
Frame Time: 0.03333334
-0.058358	-2.235097	 1.208474	 4.474926	-1.565040	-3.247915	 23.754420	-8.596120	-176.265100	 0.614198	-36.889040	 0.129229	 56.823020	 81.852420	-60.511090	-2.370677	 31.399860	-0.065059	-28.729580	-31.976390	-177.244400	 9.813802	-49.656600	 8.095925	-0.652558	 70.279820	 8.409789	 2.358246	 33.106430	 0.105693	-17.858410	 8.882517	 1.621079	-0.345958	 2.518793	 0.805788	-2.482252	-2.459766	-1.110099	-93.838440	 58.921200	 175.606700	 10.661670	 29.347880	-39.207770	 12.017640	-1.945270	-8.313364	-11.409170	-5.550055	-7.857004	-4.869291	 19.243590	-2.786476	-3.887973	 21.390170	 2.209309	-4.808248	 5.545567	 0.146966	-0.105310	-5.040039	 0.169147	-4.609408	 2.291271	 2.577506	 89.810340	 61.609600	-179.932700	-18.878750	 48.957340	 14.172980	-14.431720	-1.996854	 8.341634	 7.288054	 7.235418	-0.853260	 6.299899	 25.515980	-0.561706	 1.796168	 45.412640	-6.913325	 0.427527	 24.707660	 3.618620
-0.061353	-2.302000	 1.205660	 5.746409	-0.602252	-3.171760	 21.974190	-6.015821	-177.644800	 1.215139	-35.497540	 0.500803	 61.221330	 83.840440	-65.039200	-2.368434	 31.774720	-0.073550	-32.763340	-34.371700	 178.407800	 9.513854	-38.463560	 6.431412	-10.230600	 72.053180	 17.537070	 2.359014	 32.993320	 0.103068	-26.975740	 8.321652	 1.480410	-0.894152	 2.481587	 0.504249	-1.561781	-2.672007	-0.588731	-94.119380	 59.019100	 174.994900	 8.211421	 25.584080	-40.495410	 14.577540	-3.071033	-10.324570	-9.178206	-6.853580	-9.566690	-4.863863	 19.389190	-2.797389	-3.873960	 21.569430	 2.195066	-4.804308	 5.592060	 0.144244	-0.036656	-5.106632	 0.234597	-3.481125	 2.220759	 2.409292	 89.711190	 61.731780	 179.830500	-18.751500	 50.975380	 11.419920	-18.548340	-3.138651	 10.350500	 5.489913	 7.062503	-0.997470	 6.275959	 23.527720	-0.551975	 2.044480	 43.382430	-7.134293	 0.806173	 23.034820	 3.428886
-0.065769	-2.386367	 1.196240	 6.472849	 0.610817	-3.508791	 20.710580	-2.355351	-179.039700	 1.544275	-33.428600	 0.656489	 77.514690	 86.607830	-81.171220	-2.364036	 32.475190	-0.089551	-34.454520	-34.911550	 174.300300	 9.334787	-22.344710	 3.858249	-16.149140	 70.385680	 21.693430	 2.359942	 32.857070	 0.099906	-35.868510	 7.289300	 1.689456	-1.468733	 2.873224	 0.114334	-0.497178	-2.948093	-0.021821	-94.406570	 58.924980	 174.397000	 5.299561	 21.909270	-41.842890	 17.307000	-4.655899	-12.485860	-7.369153	-9.706171	-9.310715	-4.840919	 19.918730	-2.821052	-3.844077	 21.948980	 2.164702	-4.785727	 5.810734	 0.131403	 0.001777	-5.207527	 0.325121	-2.335320	 2.118614	 2.414006	 89.525260	 61.955170	 179.380700	-17.959110	 52.957470	 8.230746	-24.146590	-4.749159	 12.501000	 2.701114	 6.329981	-2.014832	 6.226858	 20.630270	-0.643855	 2.326458	 40.870730	-7.381881	 1.433371	 20.155940	 3.135223
-0.072423	-2.472862	 1.180180	 6.763718	 1.015444	-3.860851	 19.602860	 2.746306	 179.146000	 1.767700	-30.587790	 0.720137	 84.345910	 89.158610	-87.823430	-2.345039	 35.110320	-0.151530	-32.989110	-38.720920	 171.943600	 9.529357	-15.571100	 2.789310	-21.565960	 75.011390	 25.282420	 2.340515	 35.459810	 0.161651	-42.852000	 6.828973	 2.013985	-1.972455	 3.492102	-0.227146	 0.603217	-3.294129	 0.486821	-94.528340	 58.886460	 174.144400	 2.576541	 20.047130	-43.012840	 20.269660	-6.442304	-14.380350	-6.055915	-12.902790	-9.087803	-4.836725	 20.422940	-2.946625	-3.800006	 22.501750	 2.119945	-4.745728	 6.279047	 0.103645	 0.077957	-5.359102	 0.352257	-1.181154	 1.985043	 2.253718	 89.382710	 61.998230	 179.035600	-16.128390	 54.198040	 4.388835	-29.853570	-6.555490	 14.375920	-0.000530	 4.313830	-3.756307	 6.172240	 17.205140	-0.705669	 2.764722	 36.471320	-7.758201	 2.155250	 16.681760	 2.831380
